<svg id="그룹_911" data-name="그룹 911" xmlns="http://www.w3.org/2000/svg" xmlns:xlink="http://www.w3.org/1999/xlink" width="428.867" height="163.095" viewBox="0 0 428.867 163.095">
  <defs>
    <clipPath id="clip-path">
      <rect id="사각형_472" data-name="사각형 472" width="428.867" height="163.095" fill="none"/>
    </clipPath>
  </defs>
  <g id="그룹_878" data-name="그룹 878" clip-path="url(#clip-path)">
    <path id="패스_447" data-name="패스 447" d="M167.784,81.951l37.729,3.875,5.079,5.023,4.251,72.213,3.445-72.256,5.347-5.407,37.357-4.259-37.729-3.875-5.078-5.022L213.934.03l-3.446,72.255-5.347,5.407Z" transform="translate(13.687 0.002)" fill="none" stroke="#fff" stroke-miterlimit="10" stroke-width="1"/>
    <path id="패스_448" data-name="패스 448" d="M43.206,113.89,15.248,58.975V104.9c0,5.629,4.449,7.262,10.712,7.353v1.634c-4.267-.454-9.078-.817-13.071-.817-3.9,0-8.623.362-12.889.817v-1.634c5.991-.091,10.8-1.724,10.8-7.443V54.98c0-5.809-2.542-7.353-9.53-7.443V45.813a98.441,98.441,0,0,0,12.435.816h3.813L45.657,102.18,72.8,46.629h3.449a117.235,117.235,0,0,0,13.525-.816v1.724c-7.262.091-9.894,1.634-9.894,7.262v50.1c0,5.629,2.905,7.262,11.256,7.353v1.634c-5.265-.454-10.167-.817-15.067-.817-4.993,0-9.714.362-14.978.817v-1.634c8.078-.091,11.164-1.724,11.164-7.443V57.7L44.477,113.89Z" transform="translate(0 3.737)" fill="#fff"/>
    <path id="패스_449" data-name="패스 449" d="M100.691,54.981c0-5.809-2.723-7.353-10.71-7.443V45.812a136.3,136.3,0,0,0,14.613.817,138.364,138.364,0,0,0,14.8-.817v1.725c-8.352.091-10.711,1.634-10.711,7.262v50.1c0,5.627,2.631,7.262,10.982,7.353v1.634c-5.264-.454-10.075-.817-15.067-.817-4.9,0-9.713.362-14.886.817v-1.634c7.986-.091,10.982-1.725,10.982-7.443Z" transform="translate(7.318 3.737)" fill="#fff"/>
    <path id="패스_450" data-name="패스 450" d="M147.63,82.484a36.581,36.581,0,0,1-5.446.362l-2.723.091V104.9c0,5.627,2.633,7.262,10.982,7.353v1.634c-5.264-.454-10.075-.817-15.067-.817-3,0-7.262.362-12.435.817v-1.634c5.537-.091,8.441-1.725,8.441-7.443V54.981c0-5.809-2.631-7.353-8.168-7.443V45.812a121.815,121.815,0,0,0,15.521.817l12.073-.817c11.074.727,19.7,5.538,19.7,16.249,0,10.982-6.9,16.519-15.43,18.971l15.066,23.055c3,4.812,6.809,8.078,12.89,8.169v1.634a105.828,105.828,0,0,0-11.709-.817c-3.994,0-7.534.362-12.8.817v-1.634c4.085-.091,5.447-1.18,5.447-2.723,0-1.451-1.09-3.267-2.178-4.9ZM139.461,80.4l2.178-.091c12.707-.453,20.422-5.991,20.422-17.971,0-7.08-3.177-12.163-11.346-13.979l-11.255,1.18Z" transform="translate(10.029 3.737)" fill="#fff"/>
    <path id="패스_451" data-name="패스 451" d="M192.246,54.981c0-5.809-2.723-7.353-10.71-7.443V45.812a136.3,136.3,0,0,0,14.613.817,138.364,138.364,0,0,0,14.8-.817v1.725c-8.352.091-10.711,1.634-10.711,7.262v50.1c0,5.627,2.631,7.262,10.982,7.353v1.634c-5.264-.454-10.075-.817-15.067-.817-4.9,0-9.713.362-14.886.817v-1.634c7.986-.091,10.982-1.725,10.982-7.443Z" transform="translate(14.787 3.737)" fill="#fff"/>
    <path id="패스_452" data-name="패스 452" d="M274.948,114.526l-45.2-58.638V104.9c0,5.627,4.447,7.261,10.711,7.351v1.634c-4.266-.454-9.077-.817-13.071-.817-3.9,0-8.622.362-12.889.817v-1.634c5.991-.091,10.8-1.724,10.8-7.442V54.98c0-5.809-3.178-7.353-10.258-7.443V45.813a110.017,110.017,0,0,0,13.162.817h4.538l39.212,50.74V54.8c0-5.627-4.447-7.171-10.8-7.262V45.813a108.536,108.536,0,0,0,13.071.817,107.067,107.067,0,0,0,12.98-.817v1.724c-6.082.091-10.8,1.634-10.8,7.443v59.545Z" transform="translate(17.498 3.737)" fill="#fff"/>
    <path id="패스_453" data-name="패스 453" d="M327.212,90.4h-24.69l-5.809,15.794a8.483,8.483,0,0,0-.453,2.179c0,2.541,2.36,3.721,9.531,3.993V114c-4.448-.363-8.987-.817-12.526-.817-3.178,0-7.625.453-11.8.817v-1.634c5.81-.273,9.44-1.725,11.074-5.991l24.054-61.9,26.051,61.178c1.634,3.9,3.63,6.717,11.709,6.717V114c-5.356-.454-9.258-.817-14.978-.817-4.175,0-10.166.453-14.341.817v-1.634c5.9,0,8.986-1.18,8.986-3.9a7.456,7.456,0,0,0-.818-3.087ZM303.7,87.041H325.85L314.321,58.177Z" transform="translate(22.961 3.628)" fill="#fff"/>
    <path id="패스_454" data-name="패스 454" d="M368.141,77.221h10.165c5.719,0,8.169-2.814,8.533-9.8h1.815a83.484,83.484,0,0,0-.726,11.165,102.473,102.473,0,0,0,.726,12.253h-1.815c-.363-7.353-2.813-10.8-8.443-10.8H368.141v30.317h14.613c9.348,0,12.071-2.814,15.34-17.246h2.089c-1.907,7.35-2.453,11.981-2.453,15.7a26.9,26.9,0,0,0,.818,7.715h-1.815c-.727-2.905-5.084-3.267-8.987-3.267H364.055c-3,0-7.262.362-12.435.817V112.44c5.537-.091,8.441-1.725,8.441-7.443V55.164c0-5.809-2.632-7.351-8.168-7.442V46a107.341,107.341,0,0,0,12.162.817h21.331c4,0,8.169-.271,8.805-3.267H396.1a27.467,27.467,0,0,0-.635,6.9,39.991,39.991,0,0,0,1.724,12.617H395.1c-2.633-10.528-4.629-13.253-13.978-13.253H368.141Z" transform="translate(28.684 3.552)" fill="#fff"/>
  </g>
</svg>
